<svg t="1659792096789" class="icon" viewBox="0 0 1024 1024" version="1.1" xmlns="http://www.w3.org/2000/svg" p-id="1057" width="200" height="200"><path d="M527.78 1024c-5.29 0-10.56-0.09-15.78-0.25-5.23 0.16-10.48 0.25-15.78 0.25-15.89 0-31.91-0.79-47.63-2.33C178.65 995.11 10.18 762.39 38.91 455.74c17.47-186.39 104.94-339.33 240-419.58a57.388 57.388 0 0 1 29.3-8.06c18.14 0 35.44 8.82 46.38 23.35C399.41 17.64 450.86 0 505.52 0c58.82 0 112.91 19.9 159.47 58.17 0.43-0.69 0.85-1.39 1.28-2.09C676.82 38.82 695.8 28.1 715.8 28.1c10.28 0 20.39 2.78 29.26 8.04 135.1 80.29 222.57 233.22 240.03 419.61 28.74 306.65-139.72 539.37-409.67 565.93a493.836 493.836 0 0 1-47.64 2.32z" fill="#25467A" p-id="1058"></path><path d="M774.34 503.42c0 229.12-85.69 418.55-228.83 448.2-12.85 2.64-26.21 4.02-39.99 4.02-167 0-268.82-202.49-268.82-452.22 0-163.68 43.68-307.01 120.88-386.52 40.57-41.58 90.39-65.7 147.93-65.7 167.01 0 268.83 202.5 268.83 452.22z" fill="#B4D349" p-id="1059"></path><path d="M514.65 972.5c-19.75 0.82-40.15 0.27-61.04-1.79C200.29 945.79 65.57 720.1 89.9 460.52c15.69-167.47 93.66-308.14 215.17-380.34 3.19-1.9 7.03-0.59 8.99 2.61 37.86 61.91 60.62 108.84 111.82 309.19s79.64 394.18 88.77 580.52z" fill="#F9F1E9" p-id="1060"></path><path d="M509.35 972.5c19.75 0.82 40.15 0.27 61.04-1.79C823.71 945.79 958.42 720.1 934.1 460.52c-15.69-167.47-93.66-308.14-215.17-380.34-3.19-1.9-7.03-0.59-8.99 2.61-37.86 61.91-60.62 108.84-111.82 309.19s-79.64 394.18-88.77 580.52z" fill="#F9F1E9" p-id="1061"></path><path d="M512 550.44c-35.29 0-64-28.71-64-64 0-7.07 5.73-12.8 12.8-12.8s12.8 5.73 12.8 12.8c0 21.18 17.23 38.4 38.4 38.4 21.18 0 38.4-17.23 38.4-38.4 0-7.07 5.73-12.8 12.8-12.8s12.8 5.73 12.8 12.8c0 35.28-28.71 64-64 64z" fill="#25467A" p-id="1062"></path><path d="M383.99 384.03m-38.4 0a38.4 38.4 0 1 0 76.8 0 38.4 38.4 0 1 0-76.8 0Z" fill="#25467A" p-id="1063"></path><path d="M640.01 384.03m-38.4 0a38.4 38.4 0 1 0 76.8 0 38.4 38.4 0 1 0-76.8 0Z" fill="#25467A" p-id="1064"></path><path d="M332.79 448.03h-51.2c-14.14 0-25.6 11.46-25.6 25.6s11.46 25.6 25.6 25.6h51.2c14.14 0 25.6-11.46 25.6-25.6s-11.46-25.6-25.6-25.6zM742.42 448.03h-51.2c-14.14 0-25.6 11.46-25.6 25.6s11.46 25.6 25.6 25.6h51.2c14.14 0 25.6-11.46 25.6-25.6s-11.47-25.6-25.6-25.6z" fill="#FCCEC7" p-id="1065"></path></svg>
